<?xml version="1.0" encoding="iso-8859-1"?>
<!-- Generator: Adobe Illustrator 16.0.0, SVG Export Plug-In . SVG Version: 6.00 Build 0)  -->
<!DOCTYPE svg PUBLIC "-//W3C//DTD SVG 1.1//EN" "http://www.w3.org/Graphics/SVG/1.1/DTD/svg11.dtd">
<svg version="1.1" id="Capa_1" xmlns="http://www.w3.org/2000/svg" xmlns:xlink="http://www.w3.org/1999/xlink" x="0px" y="0px"
	 width="139.558px" height="139.558px" viewBox="0 0 139.558 139.558" style="enable-background:new 0 0 139.558 139.558;"
	 xml:space="preserve">
<g>
	<g>
		<path d="M54.19,65.705c29.938,0,54.19-9.709,54.19-21.681V22.344c0-11.983-24.265-21.68-54.19-21.68
			C24.263,0.664,0,10.36,0,22.344v21.681C0,55.996,24.256,65.705,54.19,65.705z M54.19,6.089c29.773,0,48.771,9.621,48.771,16.255
			c0,6.622-18.998,16.255-48.771,16.255c-29.772,0-48.771-9.633-48.771-16.255C5.419,15.71,24.418,6.089,54.19,6.089z"/>
		<path d="M54.19,98.225c6.467,0,12.638-0.476,18.39-1.304c4.643-15.388,18.928-26.616,35.801-26.616V54.86
			c0,11.971-24.265,21.681-54.19,21.681C24.263,76.541,0,66.831,0,54.86v21.681C0,88.518,24.256,98.225,54.19,98.225z"/>
		<path d="M54.19,109.057c-29.934,0-54.19-9.7-54.19-21.678v21.678c0,11.978,24.263,21.684,54.19,21.684
			c8.306,0,16.148-0.768,23.19-2.107c-3.997-5.906-6.342-13.006-6.394-20.648C65.696,108.673,60.058,109.057,54.19,109.057z"/>
		<path d="M108.381,98.839c4.902,0,8.885,3.977,8.885,8.878c0,4.902-3.982,8.878-8.885,8.878c-4.901,0-8.878-3.976-8.878-8.878
			C99.503,102.815,103.479,98.839,108.381,98.839z"/>
		<path d="M108.381,76.541c-17.214,0-31.176,13.956-31.176,31.176c0,17.227,13.962,31.177,31.176,31.177s31.177-13.95,31.177-31.177
			C139.558,90.497,125.595,76.541,108.381,76.541z M127.562,105.842l-3.318,1.224c-0.463,0.171-0.828,0.591-0.828,0.926
			c0,0.341,0.292,1.413,0.737,1.62l3.202,1.473c0.445,0.207,0.64,0.73,0.433,1.17l-3.337,7.258c-0.207,0.438-0.73,0.64-1.181,0.433
			l-3.203-1.479c-0.451-0.207-1.449,0.256-1.718,0.48c-0.255,0.219-0.328,0.779-0.151,1.236l1.224,3.318
			c0.164,0.457-0.073,0.969-0.523,1.145l-7.49,2.765c-0.463,0.165-0.98-0.079-1.145-0.529l-1.23-3.319
			c-0.164-0.463-1.205-0.84-1.546-0.858c-0.342-0.024-0.779,0.323-0.986,0.755l-1.48,3.222c-0.188,0.433-0.725,0.64-1.175,0.42
			l-7.259-3.337c-0.432-0.207-0.639-0.736-0.426-1.175l1.485-3.203c0.195-0.45-0.268-1.443-0.486-1.698
			c-0.22-0.269-0.78-0.348-1.236-0.171l-3.318,1.229c-0.451,0.165-0.975-0.079-1.146-0.523l-2.764-7.502
			c-0.159-0.463,0.072-0.975,0.523-1.145l3.324-1.218c0.451-0.171,0.841-1.212,0.865-1.547c0.012-0.347-0.329-0.792-0.768-0.986
			l-3.209-1.485c-0.444-0.201-0.651-0.73-0.433-1.17l3.337-7.258c0.207-0.444,0.737-0.646,1.176-0.438l3.209,1.485
			c0.444,0.195,1.449-0.268,1.705-0.486c0.262-0.22,0.334-0.779,0.158-1.23l-1.218-3.324c-0.171-0.463,0.066-0.975,0.523-1.145
			l7.489-2.766c0.463-0.158,0.975,0.074,1.145,0.524l1.219,3.324c0.17,0.463,1.218,0.841,1.559,0.858
			c0.341,0.031,0.779-0.322,0.986-0.761l1.479-3.215c0.201-0.438,0.737-0.634,1.175-0.427l7.246,3.337
			c0.438,0.207,0.64,0.731,0.438,1.182l-1.474,3.203c-0.219,0.438,0.256,1.449,0.476,1.704c0.219,0.256,0.779,0.342,1.242,0.165
			l3.307-1.224c0.456-0.171,0.979,0.072,1.15,0.523l2.759,7.489C128.25,105.16,128.019,105.671,127.562,105.842z"/>
	</g>
</g>
<g>
</g>
<g>
</g>
<g>
</g>
<g>
</g>
<g>
</g>
<g>
</g>
<g>
</g>
<g>
</g>
<g>
</g>
<g>
</g>
<g>
</g>
<g>
</g>
<g>
</g>
<g>
</g>
<g>
</g>
</svg>
